<mxfile host="app.diagrams.net" modified="2023-12-23T10:05:14.588Z" agent="Mozilla/5.0 (Windows NT 10.0; Win64; x64) AppleWebKit/537.36 (KHTML, like Gecko) Chrome/118.0.0.0 YaBrowser/23.11.0.0 Safari/537.36" version="22.1.11" etag="AnNewoRzK5WUHHw4xbhv" type="github">
  <diagram name="Страница — 1" id="en0-uw0zwn7UP_3z0Ww_">
    <mxGraphModel>
      <root>
        <mxCell id="0" />
        <mxCell id="1" parent="0" />
      </root>
    </mxGraphModel>
  </diagram>
</mxfile>
